# ProBuilder 5.0.7
# https://unity3d.com/unity/features/worldbuilding/probuilder
# 2023-05-12 15:41:04

mtllib ./canyon-plateau.mtl
o canyon-plateau

g canyon-plateau
v -5.904688 4.553467E-06 6.93159
v -4.660383 1.427583E-06 2.845798
v -4.464018 2.458924E-06 8.041959
v 0 0 0
v 8.310791 1.161824E-06 4.422183
v -3.4597 1.018168E-06 16.58801
v -5.791943 3.589927E-06 12.64696
v -5.36561 2.220753E-06 9.454703
v 12.39755 -3.601181E-07 24.76351
v -4.071251 5.683196E-07 19.25635
v -5.649578 1.778646E-06 23.74272
v -4.468592 7.625295E-07 29.41807
v 8.184847 1.355329E-06 37.21551
v 0.8722401 -7.25564E-07 38.24491
v 8.446749 20.25 38.17505
v -4.877743 20.25 29.96408
v 0.7463303 20.25 39.25904
v 12.88286 20.25 25.06267
v -6.121363 20.25 23.98775
v -4.45933 20.25 19.26345
v -3.815346 20.25 16.4536
v 8.579372 20.25 3.642578
v -4.872927 20.25 7.454323
v -5.822332 20.25 8.941989
v -6.271276 20.25 12.30354
v -0.1721668 20.25 -1.014127
v -5.079706 20.25 1.982593
v -6.390001 20.25 6.285068
v -4.877743 20 29.96408
v 0.7463303 20 39.25904
v 8.446749 20 38.17505
v 12.88286 20 25.06267
v -6.121363 20 23.98775
v -4.45933 20 19.26345
v -3.815346 20 16.4536
v 8.579372 20 3.642578
v -4.872927 20 7.454323
v -5.822332 20 8.941989
v -6.271276 20 12.30354
v -0.1721668 20 -1.014127
v -5.079706 20 1.982593
v -6.390001 20 6.285068
v -4.468591 10 29.41807
v 0.8722411 9.999999 38.24491
v 8.184848 10 37.21551
v 12.39755 10 24.76351
v -5.649576 10 23.74272
v -4.07125 10 19.25635
v -3.459699 10 16.58801
v 8.310792 10 4.422184
v -4.464017 10 8.041959
v -5.365609 10 9.454703
v -5.791942 10 12.64696
v 1.036047E-06 10 3.230982E-07
v -4.660382 10 2.845798
v -5.904687 10 6.931591
v -4.468591 11 29.41807
v 0.8722412 11 38.24491
v -4.46859 15 29.41807
v 0.8722417 15 38.24491
v 8.184848 11 37.21551
v 8.184848 15 37.21551
v 12.39755 11 24.76351
v 12.39755 15 24.76351
v -5.649576 11 23.74272
v -5.649576 15 23.74272
v -4.07125 11 19.25635
v -4.071249 15 19.25635
v -3.459699 11 16.58801
v -3.459698 15 16.58801
v 8.310792 11 4.422184
v 8.310792 15 4.422184
v -4.464017 11 8.041959
v -5.365609 11 9.454703
v -4.464016 15 8.041959
v -5.365609 15 9.454703
v -5.791942 11 12.64696
v -5.791941 15 12.64696
v 1.148557E-06 11 3.543405E-07
v 1.598594E-06 15 4.793096E-07
v -4.660382 11 2.845798
v -4.660382 15 2.845798
v -5.904687 11 6.931591
v -5.904686 15 6.931591
v -4.46859 16 29.41807
v 0.8722418 16 38.24491
v -4.46859 19 29.41807
v 0.8722422 19 38.24491
v 8.184848 16 37.21551
v 8.184848 19 37.21551
v 12.39755 16 24.76351
v 12.39755 19 24.76351
v -5.649576 16 23.74272
v -5.649576 19 23.74272
v -4.071249 16 19.25635
v -4.071249 19 19.25635
v -3.459698 16 16.58801
v -3.459698 19 16.58801
v 8.310792 16 4.422184
v 8.310792 19 4.422184
v -4.464016 16 8.041959
v -5.365609 16 9.454703
v -4.464016 19 8.041959
v -5.365608 19 9.454703
v -5.791941 16 12.64696
v -5.791941 19 12.64696
v 1.711103E-06 16 5.105519E-07
v 2.065288E-06 19 6.137632E-07
v -4.660382 16 2.845798
v -4.660381 19 2.845798
v -5.904686 16 6.931591
v -5.904686 19 6.931591

vt 5.904688 6.93159
vt 4.660383 2.845798
vt 4.464018 8.041959
vt 0 0
vt -8.310791 4.422183
vt 3.4597 16.58801
vt 5.791943 12.64696
vt 5.36561 9.454703
vt -12.39755 24.76351
vt 4.071251 19.25635
vt 5.649578 23.74272
vt 4.468592 29.41807
vt -8.184847 37.21551
vt -0.8722401 38.24491
vt 8.446747 38.17505
vt -4.877745 29.96408
vt 0.7463279 39.25904
vt 12.88286 25.06267
vt -6.121365 23.98775
vt -4.459332 19.26345
vt -3.815348 16.4536
vt 8.57937 3.642578
vt -4.872929 7.454322
vt -5.822335 8.941989
vt -6.271279 12.30354
vt -0.1721691 -1.014127
vt -5.079709 1.982592
vt -6.390004 6.285067
vt -23.11139 20
vt -33.97538 20
vt -23.11139 20.25
vt -33.97538 20.25
vt 4.733515 20
vt -3.042826 20
vt 4.733515 20.25
vt -3.042826 20.25
vt 33.45468 20
vt 19.61223 20
vt 33.45468 20.25
vt 19.61223 20.25
vt -22.23759 20
vt -28.34194 20
vt -22.23759 20.25
vt -28.34194 20.25
vt -19.65162 20
vt -24.65975 20
vt -19.65162 20.25
vt -24.65975 20.25
vt -16.89011 20
vt -19.77282 20
vt -16.89011 20.25
vt -19.77282 20.25
vt 27.10924 20
vt 5.26112 20
vt 27.10924 20.25
vt 5.26112 20.25
vt -8.905213 20
vt -10.67001 20
vt -8.905213 20.25
vt -10.67001 20.25
vt -9.634038 20
vt -13.02544 20
vt -9.634038 20.25
vt -13.02544 20.25
vt -7.394516 20
vt -12.21681 20
vt -7.394516 20.25
vt -12.21681 20.25
vt 9.284975 20
vt -0.6283666 20
vt 9.284975 20.25
vt -0.6283666 20.25
vt 0.381579 20
vt -5.368575 20
vt 0.381579 20.25
vt -5.368575 20.25
vt -3.376481 20
vt -7.874054 20
vt -3.376481 20.25
vt -7.874054 20.25
vt 1.224437 20
vt -0.690941 20
vt 1.224437 20.25
vt -0.690941 20.25
vt -22.85604 -7.920277E-07
vt -33.1729 -2.280121E-06
vt -22.85604 9.999999
vt -33.1729 9.999997
vt 4.46747 -1.88922E-07
vt -2.917236 1.891971E-06
vt 4.467469 10
vt -2.917237 10
vt 32.62968 3.133143E-06
vt 19.48437 1.417696E-06
vt 32.62968 10
vt 19.48437 10
vt -22.09382 -1.574406E-07
vt -27.89074 -1.173557E-06
vt -22.09382 10
vt -27.89074 9.999999
vt -19.51613 7.97726E-07
vt -24.27204 2.008053E-06
vt -19.51613 10
vt -24.27204 10
vt -16.94168 1.049163E-06
vt -19.6792 5.993142E-07
vt -16.94168 10
vt -19.6792 10
vt 26.72035 3.202675E-07
vt 5.972549 1.84221E-06
vt 26.72035 10
vt 5.97255 10
vt -9.180591 2.504209E-06
vt -10.85651 2.266038E-06
vt -9.18059 10
vt -10.85651 10
vt -10.08178 1.836325E-06
vt -13.30238 3.2055E-06
vt -10.08178 10
vt -13.30238 10
vt -7.934182 2.652207E-06
vt -12.51361 8.044745E-08
vt -7.934182 10
vt -12.51362 10
vt 9.414083 1.161824E-06
vt 9.414083 10
vt 1.066399E-06 10
vt -5.460562 1.427583E-06
vt -5.460561 10
vt -4.080077 1.071286E-06
vt -8.351142 4.19717E-06
vt -4.080077 10
vt -8.351142 10
vt 0.445368 4.367481E-06
vt -1.373546 2.272939E-06
vt 0.445367 10
vt -1.373547 10
vt -22.85604 11
vt -33.1729 11
vt -22.85604 15
vt -33.1729 15
vt 4.467469 11
vt -2.917237 11
vt 4.467469 15
vt -2.917237 15
vt 32.62968 11
vt 19.48437 11
vt 32.62968 15
vt 19.48437 15
vt -22.09382 11
vt -27.89075 11
vt -22.09382 15
vt -27.89075 15
vt -19.51613 11
vt -24.27204 11
vt -19.51613 15
vt -24.27204 15
vt -16.94168 11
vt -19.6792 11
vt -16.94168 15
vt -19.6792 15
vt 26.72035 11
vt 5.97255 11
vt 26.72035 15
vt 5.97255 15
vt -9.18059 11
vt -10.85651 11
vt -9.18059 15
vt -10.85651 15
vt -10.08178 11
vt -13.30238 11
vt -10.08178 15
vt -13.30238 15
vt -7.934182 11
vt -12.51361 11
vt -7.934182 15
vt -12.51361 15
vt 9.414083 11
vt 1.180399E-06 11
vt 9.414083 15
vt 1.636397E-06 15
vt -5.460561 11
vt -5.460561 15
vt -4.080077 11
vt -8.351142 11
vt -4.080077 15
vt -8.351142 15
vt 0.4453689 11
vt -1.373545 11
vt 0.4453685 15
vt -1.373546 15
vt -22.85604 16
vt -33.1729 16
vt -22.85604 19
vt -33.1729 19
vt 4.467469 16
vt -2.917236 16
vt 4.467469 19
vt -2.917236 19
vt 32.62968 16
vt 19.48437 16
vt 32.62968 19
vt 19.48437 19
vt -22.09382 16
vt -27.89074 16
vt -22.09382 19
vt -27.89074 19
vt -19.51613 16
vt -24.27204 16
vt -19.51613 19
vt -24.27204 19
vt -16.94168 16
vt -19.6792 16
vt -16.94168 19
vt -19.6792 19
vt 26.72035 16
vt 5.97255 16
vt 26.72035 19
vt 5.97255 19
vt -9.18059 16
vt -10.85651 16
vt -9.18059 19
vt -10.85651 19
vt -10.08178 16
vt -13.30238 16
vt -10.08178 19
vt -13.30238 19
vt -7.934182 16
vt -12.51361 16
vt -7.934182 19
vt -12.51361 19
vt 9.414083 16
vt 1.750396E-06 16
vt 9.414083 19
vt 2.111554E-06 19
vt -5.460561 16
vt -5.46056 19
vt -4.080077 16
vt -8.351142 16
vt -4.080077 19
vt -8.351142 19
vt 0.4453685 16
vt -1.373546 16
vt 0.4453681 19
vt -1.373546 19
vt -22.85604 10
vt -22.85604 11
vt -27.89075 10
vt -22.85604 15
vt -22.85604 16
vt -12.51361 16
vt -4.080077 16
vt -22.85604 26.24297
vt -33.1729 26.24297
vt -23.11139 27.42633
vt -33.97538 27.42633
vt 4.467469 40.20924
vt -2.917236 40.20924
vt 4.733517 41.61406
vt -3.042824 41.61406
vt 32.62968 26.16651
vt 19.48437 26.16651
vt 33.45467 27.31049
vt 19.61222 27.31049
vt -22.09382 21.63722
vt -27.89074 21.63722
vt -22.23759 22.76059
vt -28.34195 22.76058
vt -19.51613 16.98389
vt -24.27204 16.98389
vt -19.65162 18.04798
vt -24.65975 18.04799
vt -16.94168 17.66284
vt -19.6792 17.66284
vt -16.89011 18.73143
vt -19.77282 18.73143
vt 26.72035 20.33717
vt 5.97255 20.33717
vt 27.10924 21.42059
vt 5.261121 21.42059
vt -9.18059 15.54099
vt -10.85651 15.54098
vt -8.905214 16.73961
vt -10.67002 16.7396
vt -10.08178 18.73101
vt -13.30238 18.73102
vt -9.634034 19.8584
vt -13.02544 19.8584
vt -7.934185 21.12665
vt -12.51362 21.12665
vt -7.394522 22.1545
vt -12.21682 22.15449
vt 9.414084 14.73244
vt 2.111555E-06 14.73244
vt 9.284975 16.02211
vt -0.6283668 16.02211
vt 9.099689 -10.29341
vt 13.19082 -6.676729
vt 9.729758 -11.58225
vt 14.03785 -7.773765
vt -4.080075 17.89481
vt -8.35114 17.89482
vt -3.376477 19.08893
vt -7.874051 19.08893
vt 0.4453685 16.65381
vt -1.373545 16.65381
vt 1.224437 17.67684
vt -0.6909415 17.67684

vn -1.655048E-06 -1 2.610265E-07
vn 0 1 0
vn -0.8555743 0 0.5176801
vn 0.1393961 0 0.9902367
vn 0.9472581 0 0.3204716
vn -0.9790278 0 0.2037267
vn -0.9433262 0 -0.331867
vn -0.9747278 0 -0.2233959
vn 0.9804089 0 -0.1969729
vn -0.8429655 0 -0.5379676
vn -0.9911994 0 -0.1323771
vn -0.860597 0 0.5092866
vn 0.4697412 0 -0.8828042
vn -0.5211547 6.212648E-08 -0.8534623
vn -0.9566215 0 -0.2913338
vn -0.6104566 0 0.7920496
vn -0.7230059 -0.534682 0.4374674
vn 0.0992268 -0.7023489 0.704883
vn 0.8280396 -0.4856676 0.2801383
vn -0.8715132 -0.4556048 0.1813534
vn -0.8865052 -0.3418208 -0.3118765
vn -0.9121593 -0.3525068 -0.2090559
vn 0.9049252 -0.3847812 -0.1818076
vn -0.703279 -0.5513228 -0.4488228
vn -0.8792015 -0.4617549 -0.1174188
vn -0.8372844 -0.2311806 0.49549
vn 0.3642335 -0.6314806 -0.684519
vn -0.3768483 -0.6907408 -0.6171407
vn -0.8011146 -0.5465272 -0.2439743
vn -0.5967185 0.2109574 0.7742248

usemtl ProBuilderDefault
f 1/1/1 2/2/1 3/3/1
f 3/3/1 2/2/1 4/4/1
f 5/5/1 3/3/1 4/4/1
f 5/5/1 6/6/1 3/3/1
f 6/6/1 7/7/1 3/3/1
f 7/7/1 8/8/1 3/3/1
f 6/6/1 5/5/1 9/9/1
f 10/10/1 6/6/1 9/9/1
f 11/11/1 10/10/1 9/9/1
f 12/12/1 11/11/1 9/9/1
f 13/13/1 12/12/1 9/9/1
f 14/14/1 12/12/1 13/13/1

usemtl canyon-top
f 15/15/2 16/16/2 17/17/2
f 18/18/2 16/16/2 15/15/2
f 18/18/2 19/19/2 16/16/2
f 18/18/2 20/20/2 19/19/2
f 18/18/2 21/21/2 20/20/2
f 18/18/2 22/22/2 21/21/2
f 23/23/2 24/24/2 25/25/2
f 23/23/2 25/25/2 21/21/2
f 23/23/2 21/21/2 22/22/2
f 26/26/2 23/23/2 22/22/2
f 26/26/2 27/27/2 23/23/2
f 23/23/2 27/27/2 28/28/2

usemtl canyon-ledge
f 29/29/3 30/30/3 16/31/3
f 30/30/3 17/32/3 16/31/3
f 30/33/4 31/34/4 17/35/4
f 31/34/4 15/36/4 17/35/4
f 31/37/5 32/38/5 15/39/5
f 32/38/5 18/40/5 15/39/5
f 33/41/6 29/42/6 19/43/6
f 29/42/6 16/44/6 19/43/6
f 34/45/7 33/46/7 20/47/7
f 33/46/7 19/48/7 20/47/7
f 35/49/8 34/50/8 21/51/8
f 34/50/8 20/52/8 21/51/8
f 32/53/9 36/54/9 18/55/9
f 36/54/9 22/56/9 18/55/9
f 37/57/10 38/58/10 23/59/10
f 38/58/10 24/60/10 23/59/10
f 38/61/11 39/62/11 24/63/11
f 39/62/11 25/64/11 24/63/11
f 39/65/12 35/66/12 25/67/12
f 35/66/12 21/68/12 25/67/12
f 36/69/13 40/70/13 22/71/13
f 40/70/13 26/72/13 22/71/13
f 40/73/14 41/74/14 26/75/14
f 41/74/14 27/76/14 26/75/14
f 41/77/15 42/78/15 27/79/15
f 42/78/15 28/80/15 27/79/15
f 42/81/16 37/82/16 28/83/16
f 37/82/16 23/84/16 28/83/16

usemtl canyon-rock
f 12/85/3 14/86/3 43/87/3
f 14/86/3 44/88/3 43/87/3
f 14/89/4 13/90/4 44/91/4
f 13/90/4 45/92/4 44/91/4
f 13/93/5 9/94/5 45/95/5
f 9/94/5 46/96/5 45/95/5
f 11/97/6 12/98/6 47/99/6
f 12/98/6 43/100/6 47/99/6
f 10/101/7 11/102/7 48/103/7
f 11/102/7 47/104/7 48/103/7
f 6/105/8 10/106/8 49/107/8
f 10/106/8 48/108/8 49/107/8
f 9/109/9 5/110/9 46/111/9
f 5/110/9 50/112/9 46/111/9
f 3/113/10 8/114/10 51/115/10
f 8/114/10 52/116/10 51/115/10
f 8/117/11 7/118/11 52/119/11
f 7/118/11 53/120/11 52/119/11
f 7/121/12 6/122/12 53/123/12
f 6/122/12 49/124/12 53/123/12
f 5/125/13 4/4/13 50/126/13
f 4/4/13 54/127/13 50/126/13
f 4/4/14 2/128/14 54/127/14
f 2/128/14 55/129/14 54/127/14
f 2/130/15 1/131/15 55/132/15
f 1/131/15 56/133/15 55/132/15
f 1/134/16 3/135/16 56/136/16
f 3/135/16 51/137/16 56/136/16
f 57/138/3 58/139/3 59/140/3
f 58/139/3 60/141/3 59/140/3
f 58/142/4 61/143/4 60/144/4
f 61/143/4 62/145/4 60/144/4
f 61/146/5 63/147/5 62/148/5
f 63/147/5 64/149/5 62/148/5
f 65/150/6 57/151/6 66/152/6
f 57/151/6 59/153/6 66/152/6
f 67/154/7 65/155/7 68/156/7
f 65/155/7 66/157/7 68/156/7
f 69/158/8 67/159/8 70/160/8
f 67/159/8 68/161/8 70/160/8
f 63/162/9 71/163/9 64/164/9
f 71/163/9 72/165/9 64/164/9
f 73/166/10 74/167/10 75/168/10
f 74/167/10 76/169/10 75/168/10
f 74/170/11 77/171/11 76/172/11
f 77/171/11 78/173/11 76/172/11
f 77/174/12 69/175/12 78/176/12
f 69/175/12 70/177/12 78/176/12
f 71/178/13 79/179/13 72/180/13
f 79/179/13 80/181/13 72/180/13
f 79/179/14 81/182/14 80/181/14
f 81/182/14 82/183/14 80/181/14
f 81/184/15 83/185/15 82/186/15
f 83/185/15 84/187/15 82/186/15
f 83/188/16 73/189/16 84/190/16
f 73/189/16 75/191/16 84/190/16
f 85/192/3 86/193/3 87/194/3
f 86/193/3 88/195/3 87/194/3
f 86/196/4 89/197/4 88/198/4
f 89/197/4 90/199/4 88/198/4
f 89/200/5 91/201/5 90/202/5
f 91/201/5 92/203/5 90/202/5
f 93/204/6 85/205/6 94/206/6
f 85/205/6 87/207/6 94/206/6
f 95/208/7 93/209/7 96/210/7
f 93/209/7 94/211/7 96/210/7
f 97/212/8 95/213/8 98/214/8
f 95/213/8 96/215/8 98/214/8
f 91/216/9 99/217/9 92/218/9
f 99/217/9 100/219/9 92/218/9
f 101/220/10 102/221/10 103/222/10
f 102/221/10 104/223/10 103/222/10
f 102/224/11 105/225/11 104/226/11
f 105/225/11 106/227/11 104/226/11
f 105/228/12 97/229/12 106/230/12
f 97/229/12 98/231/12 106/230/12
f 99/232/13 107/233/13 100/234/13
f 107/233/13 108/235/13 100/234/13
f 107/233/14 109/236/14 108/235/14
f 109/236/14 110/237/14 108/235/14
f 109/238/15 111/239/15 110/240/15
f 111/239/15 112/241/15 110/240/15
f 111/242/16 101/243/16 112/244/16
f 101/243/16 103/245/16 112/244/16

usemtl canyon-strata
f 43/246/3 44/88/3 57/247/3
f 44/88/3 58/139/3 57/247/3
f 44/91/4 45/92/4 58/142/4
f 45/92/4 61/143/4 58/142/4
f 45/95/5 46/96/5 61/146/5
f 46/96/5 63/147/5 61/146/5
f 47/99/6 43/248/6 65/150/6
f 43/248/6 57/151/6 65/150/6
f 48/103/7 47/104/7 67/154/7
f 47/104/7 65/155/7 67/154/7
f 49/107/8 48/108/8 69/158/8
f 48/108/8 67/159/8 69/158/8
f 46/111/9 50/112/9 63/162/9
f 50/112/9 71/163/9 63/162/9
f 51/115/10 52/116/10 73/166/10
f 52/116/10 74/167/10 73/166/10
f 52/119/11 53/120/11 74/170/11
f 53/120/11 77/171/11 74/170/11
f 53/123/12 49/124/12 77/174/12
f 49/124/12 69/175/12 77/174/12
f 50/126/13 54/127/13 71/178/13
f 54/127/13 79/179/13 71/178/13
f 54/127/14 55/129/14 79/179/14
f 55/129/14 81/182/14 79/179/14
f 55/132/15 56/133/15 81/184/15
f 56/133/15 83/185/15 81/184/15
f 56/136/16 51/137/16 83/188/16
f 51/137/16 73/189/16 83/188/16
f 59/249/3 60/141/3 85/250/3
f 60/141/3 86/193/3 85/250/3
f 60/144/4 62/145/4 86/196/4
f 62/145/4 89/197/4 86/196/4
f 62/148/5 64/149/5 89/200/5
f 64/149/5 91/201/5 89/200/5
f 66/152/6 59/153/6 93/204/6
f 59/153/6 85/205/6 93/204/6
f 68/156/7 66/157/7 95/208/7
f 66/157/7 93/209/7 95/208/7
f 70/160/8 68/161/8 97/212/8
f 68/161/8 95/213/8 97/212/8
f 64/164/9 72/165/9 91/216/9
f 72/165/9 99/217/9 91/216/9
f 75/168/10 76/169/10 101/220/10
f 76/169/10 102/221/10 101/220/10
f 76/172/11 78/173/11 102/224/11
f 78/173/11 105/225/11 102/224/11
f 78/176/12 70/177/12 105/228/12
f 70/177/12 97/251/12 105/228/12
f 72/180/13 80/181/13 99/232/13
f 80/181/13 107/233/13 99/232/13
f 80/181/14 82/183/14 107/233/14
f 82/183/14 109/236/14 107/233/14
f 82/186/15 84/187/15 109/252/15
f 84/187/15 111/239/15 109/252/15
f 84/190/16 75/191/16 111/242/16
f 75/191/16 101/243/16 111/242/16
f 87/253/17 88/254/17 29/255/17
f 88/254/17 30/256/17 29/255/17
f 88/257/18 90/258/18 30/259/18
f 90/258/18 31/260/18 30/259/18
f 90/261/19 92/262/19 31/263/19
f 92/262/19 32/264/19 31/263/19
f 94/265/20 87/266/20 33/267/20
f 87/266/20 29/268/20 33/267/20
f 96/269/21 94/270/21 34/271/21
f 94/270/21 33/272/21 34/271/21
f 98/273/22 96/274/22 35/275/22
f 96/274/22 34/276/22 35/275/22
f 92/277/23 100/278/23 32/279/23
f 100/278/23 36/280/23 32/279/23
f 103/281/24 104/282/24 37/283/24
f 104/282/24 38/284/24 37/283/24
f 104/285/25 106/286/25 38/287/25
f 106/286/25 39/288/25 38/287/25
f 106/289/26 98/290/26 39/291/26
f 98/290/26 35/292/26 39/291/26
f 100/293/27 108/294/27 36/295/27
f 108/294/27 40/296/27 36/295/27
f 108/297/28 110/298/28 40/299/28
f 110/298/28 41/300/28 40/299/28
f 110/301/29 112/302/29 41/303/29
f 112/302/29 42/304/29 41/303/29
f 112/305/30 103/306/30 42/307/30
f 103/306/30 37/308/30 42/307/30

